<svg width="48" height="48" viewBox="0 0 48 48" fill="none" xmlns="http://www.w3.org/2000/svg">
<path d="M24 48C37.246 48 48 37.246 48 24C48 10.754 37.246 0 24 0C10.754 0 0 10.754 0 24C0 37.246 10.754 48 24 48ZM28.7531 30.4781L15.225 35.6813C13.4062 36.3844 11.6156 34.5938 12.3188 32.775L17.5219 19.2469C17.8313 18.45 18.45 17.8313 19.2469 17.5219L32.775 12.3188C34.5938 11.6156 36.3844 13.4062 35.6813 15.225L30.4781 28.7531C30.1781 29.55 29.55 30.1687 28.7531 30.4781ZM27 24C27 22.3443 25.6557 21 24 21C22.3443 21 21 22.3443 21 24C21 25.6557 22.3443 27 24 27C25.6557 27 27 25.6557 27 24Z" fill="white"/>
</svg>
