<svg width="20" height="20" viewBox="0 0 20 20" fill="none" xmlns="http://www.w3.org/2000/svg">
<path d="M10 20C15.5191 20 20 15.5191 20 10C20 4.48085 15.5191 0 10 0C4.48085 0 0 4.48085 0 10C0 15.5191 4.48085 20 10 20ZM11.9805 12.6992L6.34375 14.8672C5.58594 15.1602 4.83984 14.4141 5.13281 13.6562L7.30078 8.01953C7.42969 7.6875 7.6875 7.42969 8.01953 7.30078L13.6562 5.13281C14.4141 4.83984 15.1602 5.58594 14.8672 6.34375L12.6992 11.9805C12.5742 12.3125 12.3125 12.5703 11.9805 12.6992ZM11.25 10C11.25 9.31011 10.6899 8.75 10 8.75C9.31011 8.75 8.75 9.31011 8.75 10C8.75 10.6899 9.31011 11.25 10 11.25C10.6899 11.25 11.25 10.6899 11.25 10Z" fill="white"/>
</svg>
