<svg width="18" height="16" viewBox="0 0 18 16" fill="none" xmlns="http://www.w3.org/2000/svg">
<path d="M8.99995 1C6.47495 1 4.45308 2.15 2.9812 3.51875C1.5187 4.875 0.540576 6.5 0.0780762 7.61562C-0.0250488 7.8625 -0.0250488 8.1375 0.0780762 8.38438C0.540576 9.5 1.5187 11.125 2.9812 12.4812C4.45308 13.85 6.47495 15 8.99995 15C11.525 15 13.5468 13.85 15.0187 12.4812C16.4812 11.1219 17.4593 9.5 17.925 8.38438C18.0281 8.1375 18.0281 7.8625 17.925 7.61562C17.4593 6.5 16.4812 4.875 15.0187 3.51875C13.5468 2.15 11.525 1 8.99995 1ZM4.49995 8C4.49995 5.51638 6.51633 3.5 8.99995 3.5C11.4836 3.5 13.5 5.51638 13.5 8C13.5 10.4836 11.4836 12.5 8.99995 12.5C6.51633 12.5 4.49995 10.4836 4.49995 8ZM8.99995 6C8.99995 7.10313 8.10308 8 6.99995 8C6.77808 8 6.56558 7.9625 6.36558 7.89687C6.1937 7.84062 5.9937 7.94688 5.99995 8.12813C6.00933 8.34375 6.04058 8.55938 6.09995 8.775C6.52808 10.375 8.17495 11.325 9.77495 10.8969Cnan nan 12.325 8.82188 11.8968 7.22188C11.55 5.925 10.4031 5.05312 9.12808 5C8.94683 4.99375 8.84058 5.19062 8.89683 5.36562C8.96245 5.56562 8.99995 5.77812 8.99995 6Z" fill="#9CA3AF"/>
</svg>
