<svg width="25" height="20" viewBox="0 0 25 20" fill="none" xmlns="http://www.w3.org/2000/svg">
<path d="M8.27366 0C8.57834 0 8.83225 0.222656 8.926 0.515625C9.40647 2.02734 10.8244 3.125 12.5002 3.125C14.176 3.125 15.594 2.02734 16.0744 0.515625C16.1682 0.222656 16.4221 0 16.7268 0H17.219C18.0979 0 18.9455 0.308594 19.6213 0.871094L24.551 4.97656C24.8088 5.19141 24.969 5.50391 24.9963 5.83984C25.0237 6.17578 24.9143 6.50781 24.6916 6.76172L22.5041 9.26172C22.0588 9.77344 21.2854 9.83203 20.7619 9.39844L18.7502 7.72266V17.5C18.7502 18.8789 17.6291 20 16.2502 20H8.75022C7.37131 20 6.25022 18.8789 6.25022 17.5V7.72266L4.2385 9.39844C3.71897 9.83203 2.94553 9.77344 2.49631 9.26172L0.308813 6.76172C0.0861565 6.50781 -0.0232184 6.17578 0.00412531 5.83984C0.0314691 5.50391 0.191625 5.19141 0.449438 4.97656L5.37913 0.871094C6.05491 0.308594 6.90256 0 7.78147 0H8.27366Z" fill="#EC4899"/>
</svg>
