<svg width="18" height="20" viewBox="0 0 18 20" fill="none" xmlns="http://www.w3.org/2000/svg">
<path d="M0.3125 10C0.3125 8.79269 1.29269 7.8125 2.5 7.8125C3.70731 7.8125 4.6875 8.79269 4.6875 10C4.6875 11.2073 3.70731 12.1875 2.5 12.1875C1.29269 12.1875 0.3125 11.2073 0.3125 10ZM6.5625 10C6.5625 8.79269 7.54269 7.8125 8.75 7.8125C9.95731 7.8125 10.9375 8.79269 10.9375 10C10.9375 11.2073 9.95731 12.1875 8.75 12.1875C7.54269 12.1875 6.5625 11.2073 6.5625 10ZM15 7.8125C16.2073 7.8125 17.1875 8.79269 17.1875 10C17.1875 11.2073 16.2073 12.1875 15 12.1875C13.7927 12.1875 12.8125 11.2073 12.8125 10C12.8125 8.79269 13.7927 7.8125 15 7.8125Z" fill="#6B7280"/>
</svg>
