<svg width="12" height="12" viewBox="0 0 12 12" fill="none" xmlns="http://www.w3.org/2000/svg">
<path d="M3.66797 10.493L3.37266 11.1844C2.93438 10.9617 2.53125 10.6875 2.16562 10.3664L2.69766 9.83438C2.99062 10.0898 3.31641 10.3125 3.66797 10.493ZM0.951563 6.375H0.199219C0.232031 6.87187 0.325781 7.35234 0.473437 7.80703L1.17188 7.52812C1.05703 7.16016 0.979688 6.77344 0.951563 6.375ZM0.951563 5.625C0.984375 5.18437 1.07344 4.75781 1.21172 4.35703L0.520312 4.06172C0.344531 4.55391 0.234375 5.07891 0.199219 5.625H0.951563ZM1.50703 3.66797C1.68984 3.31875 1.91016 2.99297 2.16562 2.69531L1.63359 2.16328C1.3125 2.52891 1.03594 2.93203 0.815625 3.37031L1.50703 3.66797ZM9.30469 9.83438C8.97891 10.1156 8.61562 10.357 8.22422 10.5469L8.50313 11.2453C8.98828 11.0133 9.43594 10.7156 9.83672 10.3641L9.30469 9.83438ZM2.69531 2.16562C3.02109 1.88437 3.38437 1.64297 3.77578 1.45312L3.49688 0.754687C3.01172 0.986719 2.56406 1.28437 2.16562 1.63594L2.69531 2.16562ZM10.493 8.33203C10.3102 8.68125 10.0898 9.00703 9.83438 9.30469L10.3664 9.83672C10.6875 9.47109 10.9641 9.06563 11.1844 8.62969L10.493 8.33203ZM11.0484 6.375C11.0156 6.81563 10.9266 7.24219 10.7883 7.64297L11.4797 7.93828C11.6555 7.44375 11.7656 6.91875 11.7984 6.37266H11.0484V6.375ZM7.52812 10.8281C7.16016 10.9453 6.77344 11.0203 6.375 11.0484V11.8008C6.87187 11.768 7.35234 11.6742 7.80703 11.5266L7.52812 10.8281ZM5.625 11.0484C5.18437 11.0156 4.75781 10.9266 4.35703 10.7883L4.06172 11.4797C4.55625 11.6555 5.08125 11.7656 5.62734 11.7984V11.0484H5.625ZM10.8281 4.47188C10.9453 4.83984 11.0203 5.22656 11.0484 5.625H11.8008C11.768 5.12813 11.6742 4.64766 11.5266 4.19297L10.8281 4.47188ZM2.16562 9.30469C1.88437 8.97891 1.64297 8.61562 1.45312 8.22422L0.754687 8.50313C0.986719 8.98828 1.28437 9.43594 1.63594 9.83672L2.16562 9.30469ZM6.375 0.951563C6.81563 0.984375 7.23984 1.07344 7.64297 1.21172L7.93828 0.520312C7.44609 0.344531 6.92109 0.234375 6.375 0.199219V0.951563ZM4.47188 1.17188C4.83984 1.05469 5.22656 0.979688 5.625 0.951563V0.199219C5.12813 0.232031 4.64766 0.325781 4.19297 0.473437L4.47188 1.17188ZM10.3664 2.16328L9.83438 2.69531C10.1156 3.02109 10.357 3.38437 10.5492 3.77578L11.2477 3.49688C11.0156 3.01172 10.718 2.56406 10.3664 2.16328ZM9.30469 2.16562L9.83672 1.63359C9.47109 1.3125 9.06797 1.03594 8.62969 0.815625L8.33438 1.50703C8.68125 1.68984 9.00937 1.91016 9.30469 2.16562Z" fill="white"/>
<path opacity="0.208327" d="M5.34375 8.53125C5.34375 8.89344 5.63781 9.1875 6 9.1875C6.36219 9.1875 6.65625 8.89344 6.65625 8.53125C6.65625 8.16906 6.36219 7.875 6 7.875C5.63781 7.875 5.34375 8.16906 5.34375 8.53125Z" fill="white"/>
<path opacity="0.208318" d="M6.1804 7.3125H5.8054C5.65071 7.3125 5.52415 7.18594 5.52415 7.03125C5.52415 5.36719 7.33821 5.53359 7.33821 4.50469C7.33821 4.03594 6.92102 3.5625 5.9929 3.5625C5.31087 3.5625 4.95462 3.7875 4.6054 4.23516C4.51399 4.35234 4.34524 4.37578 4.22571 4.29141L3.91868 4.07578C3.78743 3.98438 3.75696 3.79922 3.85774 3.67266C4.35462 3.03516 4.94524 2.625 5.99524 2.625C7.22102 2.625 8.27805 3.32344 8.27805 4.50469C8.27805 6.08906 6.46399 5.99297 6.46399 7.03125C6.46165 7.18594 6.33509 7.3125 6.1804 7.3125Z" fill="white"/>
<path opacity="0.01" d="M5.44901 3.15234L5.61307 7.08984C5.6201 7.23984 5.74432 7.35938 5.89432 7.35938H6.10526C6.25526 7.35938 6.37947 7.23984 6.38651 7.08984L6.55057 3.15234C6.5576 2.99297 6.42869 2.85938 6.26932 2.85938H5.73026C5.57088 2.85938 5.44197 2.99297 5.44901 3.15234Z" fill="white"/>
</svg>
