<svg width="20" height="20" viewBox="0 0 20 20" fill="none" xmlns="http://www.w3.org/2000/svg">
<path d="M5.28125 4.58594L4.26172 7.5H15.7383L14.7188 4.58594C14.543 4.08594 14.0703 3.75 13.5391 3.75H6.46094C5.92969 3.75 5.45703 4.08594 5.28125 4.58594ZM1.54688 7.6875L2.92188 3.76172C3.44922 2.25781 4.86719 1.25 6.46094 1.25H13.5391C15.1328 1.25 16.5508 2.25781 17.0781 3.76172L18.4531 7.6875C19.3594 8.0625 20 8.95703 20 10V15.625V17.5C20 18.1914 19.4414 18.75 18.75 18.75H17.5C16.8086 18.75 16.25 18.1914 16.25 17.5V15.625H3.75V17.5C3.75 18.1914 3.19141 18.75 2.5 18.75H1.25C0.558594 18.75 0 18.1914 0 17.5V15.625V10C0 8.95703 0.640625 8.0625 1.54688 7.6875ZM5 11.25C5 10.5601 4.43989 10 3.75 10C3.06011 10 2.5 10.5601 2.5 11.25C2.5 11.9399 3.06011 12.5 3.75 12.5C4.43989 12.5 5 11.9399 5 11.25ZM16.25 12.5C16.9399 12.5 17.5 11.9399 17.5 11.25C17.5 10.5601 16.9399 10 16.25 10C15.5601 10 15 10.5601 15 11.25C15 11.9399 15.5601 12.5 16.25 12.5Z" fill="#14B8A6"/>
</svg>
