<svg width="14" height="14" viewBox="0 0 14 14" fill="none" xmlns="http://www.w3.org/2000/svg">
<path d="M0 11.375C0 11.859 0.391016 12.25 0.875 12.25H2.3707C2.70703 13.0238 3.47813 13.5625 4.375 13.5625C5.27187 13.5625 6.04297 13.0238 6.3793 12.25H13.125C13.609 12.25 14 11.859 14 11.375C14 10.891 13.609 10.5 13.125 10.5H6.3793C6.04297 9.72617 5.27187 9.1875 4.375 9.1875C3.47813 9.1875 2.70703 9.72617 2.3707 10.5H0.875C0.391016 10.5 0 10.891 0 11.375ZM3.5 11.375C3.5 10.8921 3.89207 10.5 4.375 10.5C4.85793 10.5 5.25 10.8921 5.25 11.375C5.25 11.8579 4.85793 12.25 4.375 12.25C3.89207 12.25 3.5 11.8579 3.5 11.375ZM8.75 7C8.75 6.51707 9.14207 6.125 9.625 6.125C10.1079 6.125 10.5 6.51707 10.5 7C10.5 7.48293 10.1079 7.875 9.625 7.875C9.14207 7.875 8.75 7.48293 8.75 7ZM9.625 4.8125C8.72812 4.8125 7.95703 5.35117 7.6207 6.125H0.875C0.391016 6.125 0 6.51602 0 7Cnan nan 0.391016 7.875 0.875 7.875H7.6207C7.95703 8.64883 8.72812 9.1875 9.625 9.1875Cnan nan 11.293 8.64883 11.6293 7.875H13.125C13.609 7.875 14 7.48398 14 7Cnan nan 13.609 6.125 13.125 6.125H11.6293C11.293 5.35117 10.5219 4.8125 9.625 4.8125ZM5.25 3.5C4.76707 3.5 4.375 3.10793 4.375 2.625C4.375 2.14207 4.76707 1.75 5.25 1.75C5.73293 1.75 6.125 2.14207 6.125 2.625C6.125 3.10793 5.73293 3.5 5.25 3.5ZM7.2543 1.75C6.91797 0.976172 6.14687 0.4375 5.25 0.4375C4.35313 0.4375 3.58203 0.976172 3.2457 1.75H0.875C0.391016 1.75 0 2.14102 0 2.625C0 3.10898 0.391016 3.5 0.875 3.5H3.2457C3.58203 4.27383 4.35313 4.8125 5.25 4.8125Cnan nan 6.91797 4.27383 7.2543 3.5H13.125C13.609 3.5 14 3.10898 14 2.625Cnan nan 13.609 1.75 13.125 1.75H7.2543Z" fill="white"/>
</svg>
