<svg width="23" height="20" viewBox="0 0 23 20" fill="none" xmlns="http://www.w3.org/2000/svg">
<path d="M7.15234 9.19141C8.46875 10 9.60938 11.0703 10.5039 12.3359C10.7773 12.7227 11.0273 13.1289 11.25 13.5469C11.4727 13.125 11.7227 12.7227 11.9961 12.3359C12.8906 11.0703 14.0312 10 15.3477 9.19141C17.0938 8.11719 19.1445 7.5 21.3281 7.5H21.7148C22.1484 7.5 22.5 7.85156 22.5 8.28516C22.5 14.0664 17.8164 18.75 12.0352 18.75H11.25H10.4648C4.68359 18.75 0 14.0664 0 8.28516C0 7.85156 0.351562 7.5 0.785156 7.5H1.17188C3.35547 7.5 5.40625 8.11719 7.15234 9.19141ZM11.7773 1.46875C12.3906 2.12891 14.1641 4.27344 15.0742 7.89844C13.5898 8.74219 12.2852 9.88281 11.25 11.2422C10.2148 9.88281 8.91016 8.74609 7.42578 7.89844C8.33203 4.27344 10.1055 2.12891 10.7227 1.46875C10.8594 1.32422 11.0508 1.25 11.25 1.25C11.4492 1.25 11.6406 1.32422 11.7773 1.46875Z" fill="#A855F7"/>
</svg>
